# AST/ASF file generated using VICON BodyLanguage
# -----------------------------------------------
:version 1.10
:name VICON
:units
  mass 1.0
  length 0.45
  angle deg
:documentation
   .ast/.asf automatically generated from VICON data using
   VICON BodyBuilder and BodyLanguage model FoxedUp or BRILLIANT.MOD
:root
   order TX TY TZ RX RY RZ
   axis XYZ
   position 0 0 0  
   orientation 0 0 0 
:bonedata
  begin
     id 1 
     name lhipjoint
     direction 0.671379 -0.66392 0.329334 
     length 2.38647 
     axis 0 0 0  XYZ
  end
  begin
     id 2 
     name lfemur
     direction 0.34202 -0.939693 0  
     length 6.48179  
     axis 0 0 20  XYZ
    dof rx ry rz
    limits (-160.0 20.0)
           (-70.0 70.0)
           (-60.0 70.0)
  end
  begin
     id 3 
     name ltibia
     direction 0.34202 -0.939693 0   
     length 6.86524   
     axis 0 0 20   XYZ
    dof rx
    limits (-10.0 170.0)
  end
  begin
     id 4 
     name lfoot
     direction 0.204886 -0.562919 0.800715   
     length 1.73031   
     axis -90 7.62852e-016 20   XYZ
    dof rx rz
    limits (-45.0 90.0)
           (-70.0 20.0)
  end
  begin
     id 5 
     name ltoes
     direction 1.53548e-011 -4.21841e-011 1   
     length 0.828161   
     axis -90 7.62852e-016 20   XYZ
    dof rx
    limits (-90.0 20.0)
  end
  begin
     id 6 
     name rhipjoint
     direction -0.662732 -0.670855 0.332775   
     length 2.3618  
     axis 0 0 0  XYZ 
  end
  begin
     id 7 
     name rfemur
     direction -0.34202 -0.939693 0   
     length 6.3025   
     axis 0 0 -20   XYZ
    dof rx ry rz
    limits (-160.0 20.0)
           (-70.0 70.0)
           (-70.0 60.0)
  end
  begin
     id 8 
     name rtibia
     direction -0.34202 -0.939693 0   
     length 6.8732   
     axis 0 0 -20   XYZ
    dof rx
    limits (-10.0 170.0)
 end
 begin
     id 9 
     name rfoot
     direction -0.173856 -0.477665 0.861168   
     length 1.54784  
     axis -90 -7.62852e-016 -20   XYZ
    dof rx rz
    limits (-45.0 90.0)
           (-20.0 70.0)
  end
  begin
     id 10 
     name rtoes
     direction -1.53562e-011 -4.21802e-011 1   
     length 0.759618   
     axis -90 -7.62852e-016 -20   XYZ
    dof rx
    limits (-90.0 20.0)
  end
  begin
     id 11 
     name lowerback
     direction -0.0278357 0.999497 -0.0151789   
     length 1.97203   
     axis 0 0 0   XYZ
    dof rx ry rz
    limits (-20.0 45.0)
           (-30.0 30.0)
           (-30.0 30.0)
  end
  begin
     id 12 
     name upperback
     direction -0.00360622 0.997542 0.0699804   
     length 1.94709   
     axis 0 0 0   XYZ
    dof rx ry rz
    limits (-20.0 45.0)
           (-30.0 30.0)
           (-30.0 30.0)
  end
  begin
     id 13 
     name thorax
     direction 0.00907706 0.997048 0.0762461   
     length 1.95722   
     axis 0 0 0   XYZ
    dof rx ry rz
    limits (-20.0 45.0)
           (-30.0 30.0)
           (-30.0 30.0)
  end
  begin
     id 14 
     name lowerneck
     direction -0.0481835 0.99872 -0.0153927   
     length 1.63078   
     axis 0 0 0   XYZ
    dof rx ry rz
    limits (-20.0 45.0)
           (-30.0 30.0)
           (-30.0 30.0)
  end
  begin
     id 15 
     name upperneck
     direction 0.0859716 0.979226 -0.183644   
     length 1.62591   
     axis 0 0 0   XYZ
    dof rx ry rz
    limits (-20.0 45.0)
           (-30.0 30.0)
           (-30.0 30.0)
  end
  begin
     id 16
     name head
     direction 0.0324821 0.997629 -0.0606773  
     length 1.64811  
     axis 0 0 0   XYZ
    dof rx ry rz
    limits (-20.0 45.0)
           (-30.0 30.0)
           (-30.0 30.0)
  end
  begin
     id 17 
     name lclavicle
     direction 0.939609 0.311019 0.142835  
     length 3.70647  
     axis 0 0 0   XYZ
    dof ry rz
    limits (-20.0 10.0)
           (0.0 20.0)
  end
  begin
     id 18 
     name lhumerus
     direction 1 -4.48963e-011 -1.59838e-027   
     length 4.59207   
     axis 180 -30 -90   XYZ
    dof rx ry rz
    limits (-60.0 90.0)
           (-90.0 90.0)
           (-90.0 90.0)
  end
  begin
     id 19
     name lradius
     direction 1 -4.48957e-011 -1.3483e-026   
     length 2.98109   
     axis 180 -30 -90   XYZ
    dof rx
    limits (-10.0 170.0)
  end
  begin
     id 20
     name lwrist
     direction 1 -4.48954e-011 -3.11579e-026   
     length 1.49055   
     axis 2.00652e-014 90 90   XYZ
    dof ry
    limits (-180.0 0.0)
 end
  begin
     id 21 
     name lhand
     direction 1 -4.4911e-011 -6.23158e-026   
     length 0.480203   
     axis 3.97628e-014 90 90   XYZ
    dof rx rz
    limits (-90.0 90.0)
           (-45.0 45.0)
  end
  begin
     id 22 
     name lfingers
     direction 1 -4.48893e-011 -1.24632e-025   
     length 0.387152   
     axis 7.95256e-014 90 90   XYZ
    dof rx
    limits (0.0 90.0)
  end
  begin
     id 23
     name lthumb
     direction 0.707107 -6.35013e-011 0.707107   
     length 0.555875   
     axis -90 45 2.85299e-015   XYZ
    dof rx rz
    limits (-45.0 45.0)
           (-45.0 45.0)
  end
  begin
     id 24 
     name rclavicle
     direction -0.950396 0.30392 0.0661859   
     length 3.70894  
     axis 0 0 0   XYZ 
    dof ry rz
    limits (-10.0 20.0)
           (-20.0 0.0)
  end
  begin
     id 25 
     name rhumerus
     direction -1 -4.48957e-011 -2.96677e-027  
     length 4.76508   
     axis 180 30 90   XYZ
    dof rx ry rz
    limits (-90.0 60.0)
           (-90.0 90.0)
           (-90.0 90.0)
  end
  begin
     id 26 
     name rradius
     direction -1 -4.48974e-011 -1.44501e-026   
     length 2.78902   
     axis 180 30 90   XYZ
    dof rx
    limits (-10.0 170.0)
  end
  begin
     id 27 
     name rwrist
     direction -1 -4.48978e-011 -3.11579e-026   
     length 1.39451   
     axis 2.00652e-014 -90 -90   XYZ
    dof ry
    limits (-180.0 0.0)
  end
  begin
     id 28
     name rhand
     direction -1 -4.48956e-011 -6.23158e-026   
     length 0.721303   
     axis 3.97628e-014 -90 -90   XYZ
    dof rx rz
    limits (-90.0 90.0)
           (-45.0 45.0)
  end
  begin
     id 29
     name rfingers
     direction -1 -4.4899e-011 -1.24632e-025   
     length 0.581533   
     axis 7.95256e-014 -90 -90   XYZ
    dof rx
    limits (0.0 90.0)
  end
  begin
     id 30
     name rthumb
     direction -0.707107 -6.34911e-011 0.707107   
     length 0.834968   
     axis -90 -45 -2.85299e-015   XYZ
    dof rx rz
    limits (-45.0 45.0)
           (-45.0 45.0)
  end
:hierarchy
  begin
    root lhipjoint rhipjoint lowerback
    lhipjoint lfemur
    lfemur ltibia
    ltibia lfoot
    lfoot ltoes
    rhipjoint rfemur
    rfemur rtibia
    rtibia rfoot
    rfoot rtoes
    lowerback upperback
    upperback thorax
    thorax lowerneck lclavicle rclavicle
    lowerneck upperneck
    upperneck head
    lclavicle lhumerus
    lhumerus lradius
    lradius lwrist
    lwrist lhand lthumb
    lhand lfingers
    rclavicle rhumerus
    rhumerus rradius
    rradius rwrist
    rwrist rhand rthumb
    rhand rfingers
  end

#!OML:ASF I:\salsa\salsa 7_09\Patient 1\Session 1\dancerfemale.ASF
:FULLY-SPECIFIED
:DEGREES
914
root -15.0322 16.5834 2.72706 -368.666 116.582 -17.0792
lowerback 9.39632 5.12078 -4.50994
upperback -3.20467 6.20865 -1.24827
thorax -9.03162 3.23108 0.109991
lowerneck 11.6622 -13.9814 -14.0404
upperneck -8.09649 -19.8702 11.8607
head -1.66767 -10.1332 6.23801
rclavicle -3.94588e-014 2.22639e-014
rhumerus -9.65682 -9.71537 -86.1315
rradius 76.1471
rwrist 0.493732
rhand -1.45739 48.0333
rfingers 7.12502
rthumb 24.1937 19.5393
lclavicle -3.94588e-014 2.22639e-014
lhumerus -46.4105 -5.6142 100.35
lradius 94.3499
lwrist -13.9085
lhand -12.7857 31.2102
lfingers 7.12502
lthumb 13.2997 60.7659
rfemur -39.8085 -10.4839 13.1574
rtibia 57.3796
rfoot -0.867181 0.7746
rtoes -30.2026
lfemur -11.883 2.00061 -31.9294
ltibia 33.4537
lfoot -6.49246 -5.44871
ltoes 6.31264
915
root -15.2689 16.5394 2.74284 -368.843 118.001 -16.48
lowerback 10.214 4.21756 -4.09796
upperback -2.9299 4.99628 -1.40203
thorax -9.09392 2.60954 -0.105192
lowerneck 11.4463 -13.471 -13.64
upperneck -8.11094 -19.0829 12.0626
head -1.75343 -9.75751 6.2591
rclavicle -4.88016e-014 4.77083e-015
rhumerus -10.5046 -9.11393 -85.4275
rradius 77.9636
rwrist -0.97686
rhand -1.16244 47.9993
rfingers 7.12502
rthumb 24.4765 19.5432
lclavicle -4.88016e-014 4.77083e-015
lhumerus -44.3943 -7.69702 100.967
lradius 94.2659
lwrist -15.6862
lhand -11.9772 30.8087
lfingers 7.12502
lthumb 14.079 60.3117
rfemur -38.3274 -9.88475 12.1985
rtibia 60.611
rfoot -1.12775 -0.714262
rtoes -32.508
lfemur -12.7226 3.04451 -32.2128
ltibia 34.9967
lfoot -5.37889 -6.96408
ltoes 13.7053
916
root -15.5001 16.4909 2.75519 -368.932 119.234 -15.4716
lowerback 11.2677 3.28325 -3.42104
upperback -2.60954 3.77943 -1.5408
thorax -9.24904 1.97335 -0.450173
lowerneck 10.9848 -12.9353 -12.963
upperneck -7.83865 -18.2276 11.9243
head -1.78234 -9.33512 6.11083
rclavicle -6.79347e-014 2.62396e-014
rhumerus -10.8533 -8.46461 -85.067
rradius 79.2936
rwrist -2.44725
rhand -0.549209 48.0182
rfingers 7.12502
rthumb 25.0642 19.6429
lclavicle -6.79347e-014 2.62396e-014
lhumerus -42.7647 -9.41323 101.218
lradius 94.3743
lwrist -16.6731
lhand -11.0503 30.1587
lfingers 7.12502
lthumb 14.972 59.5975
rfemur -36.2528 -9.41198 11.7254
rtibia 63.5196
rfoot -0.62239 -1.50784
rtoes -33.7781
lfemur -13.2065 3.85617 -32.2042
ltibia 36.4631
lfoot -4.73439 -7.94159
ltoes 17.8736
917
root -15.7217 16.4336 2.75902 -370.394 120.276 -16.0624
lowerback 12.2321 2.43676 -3.48366
upperback -2.36615 2.57239 -1.91212
thorax -9.49671 1.38408 -0.612372
lowerneck 10.5565 -12.3214 -12.4782
upperneck -7.36287 -17.306 11.8808
head -1.73245 -8.88225 6.00359
rclavicle -8.72416e-014 2.74323e-014
rhumerus -10.9923 -7.67847 -84.9196
rradius 80.6473
rwrist -3.28453
rhand 0.0241837 47.5515
rfingers 7.12502
rthumb 25.6135 19.2541
lclavicle -8.72416e-014 2.74323e-014
lhumerus -42.1033 -10.431 101.251
lradius 94.7056
lwrist -16.7806
lhand -10.116 29.284
lfingers 7.12502
lthumb 15.872 58.6535
rfemur -34.0829 -9.23068 10.6713
rtibia 66.0007
rfoot 0.653673 -2.42815
rtoes -30.5394
lfemur -13.5332 4.77179 -32.9738
ltibia 37.711
lfoot -4.55731 -8.83211
ltoes 19.1802
918
root -15.9015 16.3963 2.75452 -370.841 121.128 -15.9199
lowerback 12.3858 1.55881 -3.28596
upperback -2.19211 1.41027 -2.19561
thorax -9.35611 0.806863 -0.789106
lowerneck 10.0963 -11.6634 -12.1024
upperneck -6.77883 -16.3442 11.8854
head -1.63318 -8.40708 5.91563
rclavicle 6.60214e-014 -3.97569e-016
rhumerus -10.815 -6.82424 -84.8748
rradius 81.746
rwrist -3.64708
rhand 0.172368 46.9312
rfingers 7.12502
rthumb 25.7555 18.6543
lclavicle 6.60214e-014 -3.97569e-016
lhumerus -41.7058 -11.3341 101.015
lradius 95.0945
lwrist -15.8608
lhand -9.07408 28.8073
lfingers 7.12502
lthumb 16.8751 58.0941
rfemur -31.7808 -9.40677 10.3491
rtibia 67.7994
rfoot 2.40289 -3.05083
rtoes -26.5482
lfemur -13.9439 5.83694 -33.2374
ltibia 38.6433
lfoot -4.2604 -10.0046
ltoes 19.6923
919
root -16.0497 16.3844 2.75366 -369.55 121.897 -14.5387
lowerback 11.5908 0.633271 -2.44877
upperback -2.14383 0.318971 -2.48181
thorax -8.81674 0.227511 -1.33025
lowerneck 9.58376 -11.068 -11.1144
upperneck -6.24172 -15.3881 11.796
head -1.59059 -7.93774 5.71328
rclavicle 5.7486e-014 1.21259e-014
rhumerus -10.3931 -6.18296 -85.1975
rradius 82.6404
rwrist -3.71884
rhand -0.00396016 46.1963
rfingers 7.12502
rthumb 25.5866 17.895
lclavicle 5.7486e-014 1.21259e-014
lhumerus -41.6921 -12.0802 100.316
lradius 95.7224
lwrist -14.5686
lhand -7.43092 28.6022
lfingers 7.12502
lthumb 18.4563 57.7466
rfemur -29.816 -10.0704 11.1639
rtibia 68.9242
rfoot 3.89676 -4.53707
rtoes -18.7092
lfemur -14.8913 6.78572 -32.7557
ltibia 39.2612
lfoot -3.64861 -11.462
ltoes 19.6299
920
root -16.1955 16.3771 2.75564 -369.193 122.15 -14.5512
lowerback 10.6622 -0.19753 -2.26959
upperback -2.21578 -0.754801 -2.96903
thorax -8.37088 -0.310945 -1.74606
lowerneck 9.02885 -10.3472 -10.7297
upperneck -5.66649 -14.3245 12.1725
head -1.45333 -7.41607 5.72576
rclavicle 9.74666e-015 1.18277e-014
rhumerus -9.63838 -5.20172 -86.0017
rradius 83.106
rwrist -3.77978
rhand 0.148764 46.3747
rfingers 7.12502
rthumb 25.7329 18.0945
lclavicle 9.74666e-015 1.18277e-014
lhumerus -41.8872 -12.0084 99.1351
lradius 96.456
lwrist -13.1557
lhand -5.35811 28.709
lfingers 7.12502
lthumb 20.4493 57.6522
rfemur -28.3102 -10.8324 11.5141
rtibia 69.5243
rfoot 5.81792 -5.6448
rtoes -12.6325
lfemur -16.0256 8.01478 -33.0366
ltibia 39.543
lfoot -3.06929 -12.9577
ltoes 18.571
921
root -16.3561 16.3707 2.74581 -369.766 121.452 -15.9582
lowerback 9.58266 -0.60353 -2.94501
upperback -2.44029 -1.35263 -3.31136
thorax -7.99239 -0.572087 -1.63216
lowerneck 8.44646 -9.57069 -10.75
upperneck -5.04096 -13.2405 12.6331
head -1.26745 -6.87406 5.82147
rclavicle 1.33357e-014 6.28967e-015
rhumerus -8.63933 -3.68075 -86.4276
rradius 83.3078
rwrist -4.46851
rhand 0.615486 46.3863
rfingers 7.12502
rthumb 26.1798 18.1716
lclavicle 1.33357e-014 6.28967e-015
lhumerus -42.061 -11.3951 98.2765
lradius 96.9843
lwrist -11.7362
lhand -3.65162 28.968
lfingers 7.12502
lthumb 22.0885 57.7264
rfemur -27.4496 -11.2657 11.3356
rtibia 69.6572
rfoot 7.97292 -6.12004
rtoes -10.862
lfemur -17.4778 9.50662 -34.1548
ltibia 39.6117
lfoot -2.38132 -13.8547
ltoes 18.3113
922
root -16.501 16.3795 2.73916 -370.707 120.504 -17.1648
lowerback 8.95067 -0.796912 -3.45908
upperback -2.50398 -1.64781 -3.65718
thorax -7.69636 -0.695146 -1.66917
lowerneck 7.86181 -8.85953 -11.0401
upperneck -4.28398 -12.2591 13.664
head -0.981893 -6.38919 6.12919
rclavicle -2.19595e-014 4.01545e-014
rhumerus -7.65137 -1.90724 -86.9328
rradius 83.6037
rwrist -5.8818
rhand 0.0362095 44.6713
rfingers 7.12502
rthumb 25.6251 16.3755
lclavicle -2.19595e-014 4.01545e-014
lhumerus -42.1155 -11.0701 97.3582
lradius 97.2069
lwrist -10.4153
lhand -2.78809 29.7631
lfingers 7.12502
lthumb 22.9173 58.4212
rfemur -25.6777 -11.6218 11.4042
rtibia 69.0908
rfoot 9.38395 -6.1129
rtoes -11.3107
lfemur -18.1348 10.7946 -34.9438
ltibia 39.4258
lfoot -1.91299 -14.3746
ltoes 18.7957
923
root -16.6447 16.3946 2.72814 -370.626 119.205 -17.1604
lowerback 8.3722 -0.944772 -2.96243
upperback -2.58783 -1.77306 -4.01278
thorax -7.48004 -0.786747 -2.31253
lowerneck 7.33847 -8.26902 -10.8297
upperneck -3.60076 -11.4099 14.3467
head -0.77559 -5.95911 6.26928
rclavicle 1.15792e-014 7.55382e-015
rhumerus -6.67848 -0.678066 -87.7367
rradius 83.6257
rwrist -5.95764
rhand 0.0604996 43.866
rfingers 7.12502
rthumb 25.6483 15.5735
lclavicle 1.15792e-014 7.55382e-015
lhumerus -42.6967 -10.0249 95.9746
lradius 97.2822
lwrist -10.0028
lhand -2.11468 28.2083
lfingers 7.12502
lthumb 23.5634 56.7847
rfemur -23.7644 -11.9445 12.2628
rtibia 67.7941
rfoot 9.93967 -5.5661
rtoes -13.9849
lfemur -18.7588 11.3571 -35.0368
ltibia 39.2205
lfoot -1.99198 -14.1949
ltoes 18.3507
924
root -16.7884 16.4117 2.72234 -371.208 117.519 -17.7112
lowerback 8.19191 -0.867619 -2.94454
upperback -2.7408 -1.67153 -4.22511
thorax -7.54611 -0.739449 -2.56656
lowerneck 7.01839 -7.76501 -10.3081
upperneck -3.17576 -10.6775 14.3877
head -0.721126 -5.58079 6.18509
rclavicle -1.20637e-014 5.28767e-014
rhumerus -5.86452 0.642291 -88.444
rradius 83.7058
rwrist -5.66475
rhand 0.49538 43.185
rfingers 7.12502
rthumb 26.0648 14.9533
lclavicle -1.20637e-014 5.28767e-014
lhumerus -43.5131 -8.89715 94.7676
lradius 97.4811
lwrist -10.2535
lhand -1.98406 28.2827
lfingers 7.12502
lthumb 23.6887 56.843
rfemur -21.7149 -12.2084 12.9314
rtibia 65.8547
rfoot 10.0766 -4.20992
rtoes -18.9963
lfemur -19.2281 11.4701 -35.237
ltibia 39.0716
lfoot -2.37778 -13.2085
ltoes 17.4856
925
root -16.9318 16.4341 2.7228 -372.162 115.424 -18.633
lowerback 8.05703 -0.509941 -3.34555
upperback -2.8409 -1.23043 -4.1937
thorax -7.55565 -0.50285 -2.37368
lowerneck 6.66001 -7.35313 -9.93204
upperneck -2.89716 -10.0837 14.2577
head -0.683632 -5.26758 6.07047
rclavicle -3.6713e-014 -8.3092e-014
rhumerus -4.80251 1.91141 -88.9049
rradius 83.6544
rwrist -5.32502
rhand 0.900611 43.222
rfingers 7.12502
rthumb 26.4527 15.0481
lclavicle -3.6713e-014 -8.3092e-014
lhumerus -44.8744 -8.22754 93.8533
lradius 97.7907
lwrist -11.1598
lhand -2.20443 29.2668
lfingers 7.12502
lthumb 23.4773 57.8543
rfemur -19.6432 -12.5362 13.6538
rtibia 63.264
rfoot 10.7834 -2.13366
rtoes -21.095
lfemur -19.6356 11.5104 -35.3972
ltibia 38.943
lfoot -2.93248 -11.7197
ltoes 17.4259
926
root -17.0724 16.4585 2.72815 -373.02 113.038 -19.4093
lowerback 7.98552 -0.0678574 -3.55514
upperback -2.95195 -0.659427 -4.07524
thorax -7.61918 -0.21165 -2.21421
lowerneck 6.15754 -6.93168 -9.84816
upperneck -2.38795 -9.51035 14.3128
head -0.52632 -4.95715 6.04597
rclavicle 5.62933e-014 -3.26007e-014
rhumerus -3.62432 3.29525 -89.4419
rradius 83.422
rwrist -5.40342
rhand 1.1516 43.2266
rfingers 7.12502
rthumb 26.6929 15.089
lclavicle 5.62933e-014 -3.26007e-014
lhumerus -45.8446 -6.44854 92.8949
lradius 97.9807
lwrist -13.0953
lhand -1.90375 30.2077
lfingers 7.12502
lthumb 23.7657 58.758
rfemur -17.5221 -12.8383 14.5664
rtibia 59.97
rfoot 10.6281 -0.49735
rtoes -14.4822
lfemur -19.9804 11.8493 -35.3342
ltibia 38.9552
lfoot -3.59326 -10.1273
ltoes 17.6649
927
root -17.2085 16.4851 2.73796 -373.057 110.326 -19.2857
lowerback 7.94189 0.385066 -3.34363
upperback -3.0647 -0.0275552 -3.77516
thorax -7.70455 0.0890091 -2.10709
lowerneck 5.57647 -6.38277 -10.1405
upperneck -1.75119 -8.79278 14.7013
head -0.304598 -4.57139 6.18424
rclavicle 2.21396e-014 3.06128e-014
rhumerus -2.45147 4.97217 -90.1042
rradius 83.1935
rwrist -5.6433
rhand 1.51499 42.7319
rfingers 7.12502
rthumb 27.0407 14.6478
lclavicle 2.21396e-014 3.06128e-014
lhumerus -46.857 -4.07909 91.8387
lradius 97.9132
lwrist -15.1615
lhand -2.54934 30.9016
lfingers 7.12502
lthumb 23.1464 59.531
rfemur -15.297 -12.9228 15.9124
rtibia 55.9095
rfoot 10.1687 -0.361252
rtoes -13.3642
lfemur -20.9215 12.4874 -34.7792
ltibia 39.1435
lfoot -3.52841 -8.61978
ltoes 18.576
928
root -17.3451 16.5219 2.74946 -371.243 107.245 -17.3071
lowerback 7.87103 0.963077 -2.56177
upperback -3.18065 0.843199 -3.24728
thorax -7.7695 0.479712 -2.11285
lowerneck 5.40837 -6.01982 -10.065
upperneck -1.69003 -8.30572 14.2435
head -0.344803 -4.31836 6.03036
rclavicle -1.64122e-014 6.75868e-015
rhumerus -1.31354 6.5259 -90.7288
rradius 82.949
rwrist -5.51433
rhand 1.87331 42.1813
rfingers 7.12502
rthumb 27.3834 14.1509
lclavicle -1.64122e-014 6.75868e-015
lhumerus -48.2833 -1.90718 90.7948
lradius 97.8762
lwrist -17.271
lhand -3.1647 31.685
lfingers 7.12502
lthumb 22.5559 60.3874
rfemur -12.9844 -12.7502 17.8744
rtibia 51.1322
rfoot 10.7862 -1.01494
rtoes -8.20611
lfemur -22.0321 13.1873 -33.5084
ltibia 39.758
lfoot -3.90135 -7.14472
ltoes 17.835
